<svg width="100" height="100" xmlns="http://www.w3.org/2000/svg">

 <g>
  <title>background</title>
  <rect fill="none" id="canvas_background" height="402" width="582" y="-1" x="-1"/>
 </g>
 <g>
  <title>Layer 1</title>
  <path fill="#ffffff" id="svg_1" d="m43.945,65.639c-8.835,0 -15.998,-7.162 -15.998,-15.998c0,-8.836 7.163,-15.998 15.998,-15.998c6.004,0 11.229,3.312 13.965,8.203c0.664,-0.113 1.338,-0.205 2.033,-0.205c6.627,0 11.999,5.373 11.999,12c0,6.625 -5.372,11.998 -11.999,11.998c-2.775,0 -12.8,0 -15.998,0zm15.998,-4c4.418,0 8,-3.582 8,-7.998c0,-4.418 -3.582,-8 -8,-8c-1.6,0 -3.082,0.481 -4.333,1.291c-1.231,-5.316 -5.974,-9.29 -11.665,-9.29c-6.626,0 -11.998,5.372 -11.998,11.999c0,6.626 5.372,11.998 11.998,11.998c3.617,0 12.979,0 15.998,0z" clip-rule="evenodd" fill-rule="evenodd"/>
 </g>
</svg>