<svg width="100" height="100" xmlns="http://www.w3.org/2000/svg">

 <g>
  <title>background</title>
  <rect fill="none" id="canvas_background" height="402" width="582" y="-1" x="-1"/>
 </g>
 <g>
  <title>Layer 1</title>
  <path fill="#ffffff" id="svg_1" d="m63.943,64.941l0,-4.381c2.387,-1.385 3.998,-3.961 3.998,-6.92c0,-4.418 -3.58,-8 -7.998,-8c-1.602,0 -3.084,0.481 -4.334,1.291c-1.232,-5.316 -5.973,-9.29 -11.664,-9.29c-6.627,0 -11.998,5.372 -11.998,11.999c0,3.549 1.549,6.729 3.998,8.926l0,4.914c-4.777,-2.768 -7.998,-7.922 -7.998,-13.84c0,-8.836 7.162,-15.998 15.998,-15.998c6.004,0 11.229,3.312 13.965,8.203c0.664,-0.113 1.336,-0.205 2.033,-0.205c6.627,0 11.998,5.373 11.998,12c0,5.221 -3.341,9.653 -7.998,11.301zm-21.998,-11.3c1.104,0 2,0.895 2,2l0,3.998c0,1.105 -0.896,2 -2,2c-1.105,0 -2,-0.895 -2,-2l0,-3.998c0,-1.106 0.895,-2 2,-2zm0,11.998c1.104,0 2,0.895 2,2l0,3.998c0,1.105 -0.896,2 -2,2c-1.105,0 -2,-0.895 -2,-2l0,-3.998c0,-1.106 0.895,-2 2,-2zm7.998,-8c1.105,0 2,0.896 2,2l0,4c0,1.104 -0.895,2 -2,2c-1.104,0 -1.998,-0.896 -1.998,-2l0,-4c0,-1.104 0.895,-2 1.998,-2zm0,12c1.105,0 2,0.895 2,1.998l0,4c0,1.105 -0.895,2 -2,2c-1.104,0 -1.998,-0.895 -1.998,-2l0,-4c0,-1.104 0.895,-1.998 1.998,-1.998zm8,-15.998c1.104,0 2,0.895 2,2l0,3.998c0,1.105 -0.896,2 -2,2c-1.105,0 -2,-0.895 -2,-2l0,-3.998c0,-1.106 0.895,-2 2,-2zm0,11.998c1.104,0 2,0.895 2,2l0,3.998c0,1.105 -0.896,2 -2,2c-1.105,0 -2,-0.895 -2,-2l0,-3.998c0,-1.106 0.895,-2 2,-2z" clip-rule="evenodd" fill-rule="evenodd"/>
 </g>
</svg>