<svg width="580" height="400" xmlns="http://www.w3.org/2000/svg">
 <!-- Created with Method Draw - http://github.com/duopixel/Method-Draw/ -->

 <g>
  <title>background</title>
  <rect fill="#fff" id="canvas_background" height="402" width="582" y="-1" x="-1"/>
  <g display="none" overflow="visible" y="0" x="0" height="100%" width="100%" id="canvasGrid">
   <rect fill="url(#gridpattern)" stroke-width="0" y="0" x="0" height="100%" width="100%"/>
  </g>
 </g>
 <g>
  <title>Layer 1</title>
  <g id="svg_6">
   <path fill="#ffffff" id="svg_5" d="m314.886229,216.53333l0,-7.788445c4.247111,-2.458667 7.111112,-7.041778 7.111112,-12.302223c0,-7.852445 -6.368,-14.220445 -14.222223,-14.220445c-2.844445,0 -5.479111,0.853333 -7.703112,2.295111c-2.188445,-9.452445 -10.620445,-16.515557 -20.737779,-16.515557c-11.779556,0 -21.329779,9.550223 -21.329779,21.329779c0,6.311111 2.757333,11.96089 7.111112,15.866668l0,8.739556c-8.492445,-4.920889 -14.222223,-14.083556 -14.222223,-24.606224c0,-15.706668 12.734223,-28.439113 28.440891,-28.439113c10.673778,0 19.962668,5.886223 24.826668,14.583112c1.180445,-0.200889 2.378667,-0.364444 3.614222,-0.364444c11.781334,0 21.331557,9.550223 21.331557,21.331557c0,9.285334 -5.939556,17.16089 -14.220445,20.090668zm-39.10578,-20.08889c1.962667,0 3.553778,1.592889 3.553778,3.555556l0,28.440891c0,1.964445 -1.591111,3.555556 -3.553778,3.555556s-3.555556,-1.591111 -3.555556,-3.555556l0,-28.440891c0,-1.962667 1.592889,-3.555556 3.555556,-3.555556zm14.220445,7.111112c1.962667,0 3.555556,1.591111 3.555556,3.555556l0,28.440891c0,1.962667 -1.592889,3.555556 -3.555556,3.555556s-3.555556,-1.592889 -3.555556,-3.555556l0,-28.440891c0,-1.966222 1.592889,-3.555556 3.555556,-3.555556zm14.220445,-7.111112c1.962667,0 3.553778,1.592889 3.553778,3.555556l0,28.440891c0,1.964445 -1.591111,3.555556 -3.553778,3.555556s-3.555556,-1.591111 -3.555556,-3.555556l0,-28.440891c0,-1.962667 1.592889,-3.555556 3.555556,-3.555556z" clip-rule="evenodd" fill-rule="evenodd"/>
  </g>
 </g>
</svg>