<svg width="100" height="100" xmlns="http://www.w3.org/2000/svg">

 <g>
  <title>background</title>
  <rect fill="none" id="canvas_background" height="402" width="582" y="-1" x="-1"/>
 </g>
 <g>
  <title>Layer 1</title>
  <path fill="#ffffff" id="svg_1" d="m63.999,64.943l0,-4.381c2.389,-1.385 3.999,-3.963 3.999,-6.922c0,-4.416 -3.581,-7.998 -7.999,-7.998c-1.6,0 -3.083,0.48 -4.333,1.291c-1.231,-5.317 -5.974,-9.291 -11.665,-9.291c-6.627,0 -11.998,5.373 -11.998,12c0,3.549 1.55,6.729 4,8.924l0,4.916c-4.777,-2.768 -8,-7.922 -8,-13.84c0,-8.836 7.163,-15.999 15.998,-15.999c6.004,0 11.229,3.312 13.965,8.204c0.664,-0.113 1.337,-0.205 2.033,-0.205c6.627,0 11.999,5.373 11.999,11.998c0,5.223 -3.343,9.653 -7.999,11.303zm-21.998,-7.302c1.105,0 2,0.896 2,2c0,1.105 -0.895,2 -2,2c-1.104,0 -1.999,-0.895 -1.999,-2c0,-1.104 0.895,-2 1.999,-2zm0,8c1.105,0 2,0.895 2,2c0,1.104 -0.895,1.998 -2,1.998c-1.104,0 -1.999,-0.895 -1.999,-1.998c0,-1.106 0.895,-2 1.999,-2zm8,-4c1.104,0 2,0.895 2,2c0,1.104 -0.896,2 -2,2c-1.105,0 -2,-0.896 -2,-2c0,-1.106 0.895,-2 2,-2zm0,7.998c1.104,0 2,0.896 2,2c0,1.105 -0.896,2 -2,2c-1.105,0 -2,-0.895 -2,-2c0,-1.104 0.895,-2 2,-2zm7.998,-11.998c1.105,0 2,0.896 2,2c0,1.105 -0.895,2 -2,2c-1.104,0 -1.999,-0.895 -1.999,-2c0,-1.104 0.896,-2 1.999,-2zm0,8c1.105,0 2,0.895 2,2c0,1.104 -0.895,1.998 -2,1.998c-1.104,0 -1.999,-0.895 -1.999,-1.998c0,-1.106 0.896,-2 1.999,-2z" clip-rule="evenodd" fill-rule="evenodd"/>
 </g>
</svg>