<svg width="100" height="100" xmlns="http://www.w3.org/2000/svg">

 <g>
  <title>background</title>
  <rect fill="none" id="canvas_background" height="402" width="582" y="-1" x="-1"/>
 </g>
 <g>
  <title>Layer 1</title>
  <path fill="#ffffff" id="svg_1" d="m71.997,51.999l-3.998,0c-1.105,0 -2,-0.895 -2,-1.999s0.895,-2 2,-2l3.998,0c1.105,0 2,0.896 2,2s-0.894,1.999 -2,1.999zm-7.855,-13.311c-0.781,0.781 -2.049,0.781 -2.828,0c-0.781,-0.781 -0.781,-2.047 0,-2.828l2.828,-2.828c0.779,-0.781 2.047,-0.781 2.828,0c0.779,0.781 0.779,2.047 0,2.828l-2.828,2.828zm-14.141,23.31c-6.627,0 -12,-5.372 -12,-11.998c0,-6.627 5.372,-11.999 12,-11.999c6.627,0 11.998,5.372 11.998,11.999c0,6.626 -5.371,11.998 -11.998,11.998zm0,-19.997c-4.418,0 -8,3.581 -8,7.999c0,4.417 3.583,7.999 8,7.999s7.998,-3.582 7.998,-7.999c0,-4.418 -3.58,-7.999 -7.998,-7.999zm0,-7.999c-1.105,0 -2,-0.896 -2,-2l0,-3.999c0,-1.104 0.895,-2 2,-2c1.104,0 2,0.896 2,2l0,3.999c0,1.104 -0.897,2 -2,2zm-14.141,4.686l-2.828,-2.828c-0.781,-0.781 -0.781,-2.047 0,-2.828s2.047,-0.781 2.828,0l2.828,2.828c0.781,0.781 0.781,2.047 0,2.828s-2.047,0.781 -2.828,0zm-1.858,11.312c0,1.104 -0.896,1.999 -2,1.999l-4,0c-1.104,0 -1.999,-0.895 -1.999,-1.999s0.896,-2 1.999,-2l4,0c1.105,0 2,0.896 2,2zm1.858,11.312c0.781,-0.78 2.047,-0.78 2.828,0c0.781,0.781 0.781,2.048 0,2.828l-2.828,2.828c-0.781,0.781 -2.047,0.781 -2.828,0c-0.781,-0.78 -0.781,-2.047 0,-2.828l2.828,-2.828zm14.141,4.686c1.104,0 2,0.895 2,1.999l0,4c0,1.104 -0.896,2 -2,2c-1.105,0 -2,-0.896 -2,-2l0,-4c0,-1.104 0.895,-1.999 2,-1.999zm14.141,-4.686l2.828,2.828c0.779,0.781 0.779,2.048 0,2.828c-0.781,0.781 -2.049,0.781 -2.828,0l-2.828,-2.828c-0.781,-0.78 -0.781,-2.047 0,-2.828c0.779,-0.781 2.046,-0.781 2.828,0z" clip-rule="evenodd" fill-rule="evenodd"/>
 </g>
</svg>