<svg width="100" height="100" xmlns="http://www.w3.org/2000/svg">

 <g>
  <title>background</title>
  <rect fill="none" id="canvas_background" height="402" width="582" y="-1" x="-1"/>
 </g>
 <g>
  <title>Layer 1</title>
  <path fill="#ffffff" id="svg_1" d="m50,67.867c-4.418,0 -8,-3.582 -8,-8c0,-2.025 0.76,-3.869 2,-5.279l0,-16.717c0,-3.313 2.687,-6 6,-6c3.312,0 5.999,2.687 5.999,6l0,16.717c1.241,1.41 1.999,3.254 1.999,5.279c0,4.418 -3.58,8 -7.998,8zm2,-11.445l0,-4.291l0,-10.262l0,-3.999c0,-1.104 -0.896,-2 -2,-2c-1.104,0 -2,0.896 -2,2l0,3.999l0,10.262l0,4.291c-1.19,0.693 -2,1.969 -2,3.445c0,2.209 1.791,4 4,4s3.999,-1.791 3.999,-4c0,-1.476 -0.81,-2.752 -1.999,-3.445zm-2,6.445c-1.656,0 -3,-1.344 -3,-3c0,-1.305 0.838,-2.402 2,-2.816l0,-15.244l2,0l0,15.244c1.162,0.414 2,1.512 2,2.816c0,1.656 -1.344,3 -3,3z" clip-rule="evenodd" fill-rule="evenodd"/>
 </g>
</svg>