<svg width="100" height="100" xmlns="http://www.w3.org/2000/svg">

 <g>
  <title>background</title>
  <rect fill="none" id="canvas_background" height="402" width="582" y="-1" x="-1"/>
 </g>
 <g>
  <title>Layer 1</title>
  <path fill="#ffffff" id="svg_1" d="m50,67.865c-4.418,0 -7.998,-3.58 -7.998,-7.998c0,-2.025 0.758,-3.869 2,-5.279l0,-16.718c0,-3.313 2.686,-5.999 5.998,-5.999c3.314,0 6,2.686 6,5.999l0,16.718c1.24,1.41 2,3.254 2,5.279c0,4.418 -3.582,7.998 -8,7.998zm2,-11.443l0,-4.293l0,-10.26l0,-3.999c0,-1.104 -0.895,-2 -2,-2c-1.104,0 -2,0.896 -2,2l0,3.999l0,10.26l0,4.293c-1.189,0.693 -1.998,1.969 -1.998,3.445c0,2.209 1.789,3.998 3.998,3.998s4,-1.789 4,-3.998c0,-1.476 -0.809,-2.752 -2,-3.445zm-2,6.445c-1.656,0 -2.998,-1.344 -2.998,-3c0,-1.305 0.836,-2.402 1.998,-2.816l0,-5.184l2,0l0,5.184c1.162,0.414 2,1.512 2,2.816c0,1.656 -1.344,3 -3,3z" clip-rule="evenodd" fill-rule="evenodd"/>
 </g>
</svg>