<svg width="100" height="100" xmlns="http://www.w3.org/2000/svg">

 <g>
  <title>background</title>
  <rect fill="none" id="canvas_background" height="402" width="582" y="-1" x="-1"/>
 </g>
 <g>
  <title>Layer 1</title>
  <path fill="#ffffff" id="svg_1" d="m68.866,36.459l-37.995,0c-1.104,0 -2,-0.896 -2,-1.999c0,-1.104 0.896,-2 2,-2l37.995,0c1.104,0 2,0.896 2,2c0,1.103 -0.895,1.999 -2,1.999zm-35.995,4l29.996,0c1.104,0 2,0.896 2,2c0,1.104 -0.896,1.999 -2,1.999l-29.996,0c-1.104,0 -2,-0.896 -2,-1.999c0,-1.105 0.896,-2 2,-2zm11.998,7.999l21.998,0c1.104,0 1.999,0.896 1.999,1.999c0,1.104 -0.895,2 -1.999,2l-21.998,0c-1.104,0 -1.999,-0.896 -1.999,-2c0,-1.103 0.895,-1.999 1.999,-1.999zm2,15.998l5.999,0c1.104,0 2,0.896 2,1.999c0,1.104 -0.896,2 -2,2l-5.999,0c-1.104,0 -2,-0.896 -2,-2c0,-1.103 0.896,-1.999 2,-1.999zm1,-6c0,-1.104 0.896,-1.999 2,-1.999l13.998,0c1.104,0 2,0.896 2,1.999c0,1.104 -0.896,2 -2,2l-13.998,0c-1.104,0 -2,-0.895 -2,-2z" clip-rule="evenodd" fill-rule="evenodd"/>
 </g>
</svg>