<svg width="100" height="100" xmlns="http://www.w3.org/2000/svg">

 <g>
  <title>background</title>
  <rect fill="none" id="canvas_background" height="402" width="582" y="-1" x="-1"/>
 </g>
 <g>
  <title>Layer 1</title>
  <path fill="#ffffff" id="svg_1" d="m65.999,52l0,0l-3,0c-1.105,0 -2,-0.895 -2,-1.999s0.895,-2 2,-2l3,0c1.104,0 2,-0.896 2,-1.999c0,-1.105 -0.896,-2 -2,-2c-1.105,0 -2,-0.896 -2,-2s0.895,-2 2,-2c0.137,0 0.271,0.014 0.402,0.041c3.121,0.211 5.596,2.783 5.596,5.959c0,3.312 -2.685,5.998 -5.998,5.998zm-10,-3.999l-2,0l-6.998,0l-12.999,0c-1.104,0 -1.999,0.896 -1.999,2s0.895,1.999 1.999,1.999l2,0l3.999,0l3,0l4,0l3,0l3.998,0l2,0c3.314,0 6,2.687 6,6c0,3.176 -2.475,5.748 -5.596,5.959c-0.131,0.027 -0.265,0.041 -0.404,0.041c-1.104,0 -2,-0.896 -2,-2c0,-1.105 0.896,-2 2,-2c1.105,0 2,-0.896 2,-2s-0.895,-2 -2,-2l-2,0l-3.998,0l-3,0l-4,0l-3,0l-3.999,0l-2,0c-3.313,0 -5.999,-2.686 -5.999,-5.999c0,-3.175 2.475,-5.747 5.596,-5.959c0.131,-0.026 0.266,-0.04 0.403,-0.04l0,0l12.999,0l6.998,0l2,0c1.105,0 2,-0.896 2,-2s-0.895,-2 -2,-2c-1.104,0 -2,-0.895 -2,-2c0,-1.104 0.896,-2 2,-2c0.139,0 0.273,0.015 0.404,0.041c3.121,0.211 5.596,2.783 5.596,5.959c0,3.312 -2.686,5.999 -6,5.999z" clip-rule="evenodd" fill-rule="evenodd"/>
 </g>
</svg>